<svg width="30" height="30" viewBox="0 0 30 30" fill="none" xmlns="http://www.w3.org/2000/svg">
<path d="M4 8.5C4 8.5 6.11538 6.5 9.5 6.5C12.8846 6.5 15 8.5 15 8.5C15 8.5 17.5385 10.5 20.5 10.5C23.4615 10.5 26 8.5 26 8.5" stroke="#FCF6EC" stroke-width="1.9" stroke-linecap="round"/>
<path d="M4 15C4 15 6.11538 13 9.5 13C12.8846 13 15 15 15 15C15 15 17.5385 17 20.5 17C23.4615 17 26 15 26 15" stroke="#FCF6EC" stroke-width="1.9" stroke-linecap="round"/>
<path d="M4 21.5C4 21.5 6.11538 19.5 9.5 19.5C12.8846 19.5 15 21.5 15 21.5C15 21.5 17.5385 23.5 20.5 23.5C23.4615 23.5 26 21.5 26 21.5" stroke="#FCF6EC" stroke-width="1.9" stroke-linecap="round"/>
</svg>
