<svg width="30" height="30" viewBox="0 0 30 30" fill="none" xmlns="http://www.w3.org/2000/svg">
<path d="M14.7383 25.7476C14.9821 25.8797 15.1041 25.9458 15.2732 25.98C15.405 26.0067 15.595 26.0067 15.7268 25.98C15.8959 25.9458 16.0179 25.8797 16.2617 25.7476C18.5163 24.5264 25 20.5352 25 15.0275V10.3578C25 9.37066 25 8.87712 24.8447 8.45288C24.7075 8.0781 24.4846 7.74368 24.1952 7.47855C23.8677 7.17842 23.4232 7.00513 22.5343 6.65854L16.1671 4.17615C15.9203 4.0799 15.7969 4.03177 15.6698 4.01269C15.5572 3.99577 15.4428 3.99577 15.3302 4.01269C15.2031 4.03177 15.0797 4.0799 14.8329 4.17615L8.46572 6.65854C7.57676 7.00513 7.13228 7.17842 6.80472 7.47855C6.51535 7.74368 6.29245 8.0781 6.15528 8.45288C6 8.87712 6 9.37066 6 10.3578V15.0275C6 20.5352 12.4837 24.5264 14.7383 25.7476Z" stroke="#FCF6EC" stroke-width="2" stroke-linecap="round" stroke-linejoin="round"/>
<path d="M15.5 16L15.5 12" stroke="#FCF6EC" stroke-width="1.74935" stroke-linecap="round"/>
<path d="M13.5 14L17.5 14" stroke="#FCF6EC" stroke-width="1.74935" stroke-linecap="round"/>
</svg>
