<svg width="30" height="30" viewBox="0 0 30 30" fill="none" xmlns="http://www.w3.org/2000/svg">
<path d="M14.5 22.6441H23.5692C23.7394 22.6441 23.8318 22.445 23.722 22.315L19.2372 17.007C19.1274 16.877 19.2198 16.678 19.39 16.678H21.6663C21.8302 16.678 21.9245 16.4917 21.8275 16.3596L17.6418 10.6573C17.5449 10.5252 17.6392 10.339 17.8031 10.339H19.3001C19.4709 10.339 19.5631 10.1386 19.452 10.0089L14.458 4.17738C14.3782 4.08417 14.234 4.08417 14.1542 4.17738L9.16023 10.0089C9.04912 10.1386 9.14131 10.339 9.31214 10.339H10.8092C10.973 10.339 11.0674 10.5252 10.9704 10.6573L6.7847 16.3596C6.68774 16.4917 6.78206 16.678 6.94593 16.678H9.24344C9.41 16.678 9.50358 16.8696 9.40115 17.001L5.25191 22.3211C5.14948 22.4524 5.24307 22.6441 5.40962 22.6441H14.5ZM14.5 22.6441V26" stroke="#FCF6EC" stroke-width="2" stroke-linecap="round"/>
</svg>
