<svg width="30" height="30" viewBox="0 0 30 30" fill="none" xmlns="http://www.w3.org/2000/svg">
<path d="M24.1359 15.9562C23.435 15.5557 22.3867 15.2362 21.0074 15C22.3867 14.7638 23.435 14.4443 24.1359 14.0438C24.9924 13.5539 25.6172 12.7475 25.8731 11.8018C26.1289 10.8562 25.9947 9.84865 25.5001 9.00083C25.0055 8.15301 24.1909 7.53429 23.2354 7.2807C22.2799 7.02711 21.2617 7.15941 20.4048 7.64851C19.7039 8.04892 18.9001 8.78754 18.0038 9.85141C18.4867 8.55136 18.7311 7.49324 18.7311 6.69231C18.7311 5.71305 18.338 4.77389 17.6383 4.08145C16.9386 3.38901 15.9896 3 15 3C14.0104 3 13.0614 3.38901 12.3617 4.08145C11.662 4.77389 11.2689 5.71305 11.2689 6.69231C11.2689 7.49324 11.5133 8.55136 11.9962 9.85141C11.0999 8.7876 10.2961 8.04898 9.59524 7.64851C8.73829 7.15941 7.72013 7.02711 6.76463 7.2807C5.80914 7.53429 4.99451 8.15301 4.49988 9.00083C4.00525 9.84865 3.8711 10.8562 4.12693 11.8018C4.38275 12.7475 5.00761 13.5539 5.86412 14.0438C6.56502 14.4443 7.61332 14.7638 8.99261 15C7.61331 15.2362 6.56502 15.5557 5.86412 15.9562C5.00761 16.4461 4.38275 17.2525 4.12693 18.1982C3.8711 19.1438 4.00525 20.1514 4.49988 20.9992C4.99451 21.847 5.80914 22.4657 6.76463 22.7193C7.72013 22.9729 8.73829 22.8406 9.59524 22.3515C10.2961 21.9511 11.0999 21.2125 11.9962 20.1486C11.5133 21.4486 11.2689 22.5068 11.2689 23.3077C11.2689 24.287 11.662 25.2261 12.3617 25.9185C13.0614 26.611 14.0104 27 15 27C15.9896 27 16.9386 26.611 17.6383 25.9185C18.338 25.2261 18.7311 24.287 18.7311 23.3077C18.7311 22.5068 18.4867 21.4486 18.0038 20.1486C18.9001 21.2124 19.7039 21.951 20.4048 22.3515C21.2617 22.8406 22.2799 22.9729 23.2354 22.7193C24.1909 22.4657 25.0055 21.847 25.5001 20.9992C25.9947 20.1514 26.1289 19.1438 25.8731 18.1982C25.6172 17.2525 24.9924 16.4461 24.1359 15.9562ZM15 17.7692C14.4465 17.7692 13.9055 17.6068 13.4453 17.3025C12.9851 16.9982 12.6265 16.5657 12.4147 16.0597C12.2029 15.5537 12.1475 14.9969 12.2554 14.4598C12.3634 13.9226 12.6299 13.4291 13.0213 13.0419C13.4126 12.6546 13.9112 12.3908 14.4541 12.284C14.9969 12.1771 15.5595 12.232 16.0709 12.4416C16.5822 12.6512 17.0192 13.0061 17.3267 13.4615C17.6342 13.9169 17.7983 14.4523 17.7983 15C17.7975 15.7342 17.5024 16.4381 16.9778 16.9572C16.4532 17.4764 15.7419 17.7684 15 17.7692ZM20.8711 8.44787C21.5138 8.0811 22.2774 7.98193 22.994 8.17215C23.7106 8.36237 24.3215 8.82641 24.6925 9.46225C25.0635 10.0981 25.1641 10.8537 24.9722 11.5629C24.7804 12.2722 24.3118 12.877 23.6695 13.2444C22.757 13.7656 21.0353 14.1515 18.6749 14.366C18.5229 13.5065 18.0682 12.728 17.3915 12.1686C18.7596 10.2523 19.9585 8.9693 20.8711 8.44787ZM15 3.92308C15.7419 3.92392 16.4532 4.21594 16.9778 4.73509C17.5024 5.25424 17.7975 5.95812 17.7983 6.69231C17.7983 7.73483 17.2753 9.403 16.2831 11.5327C15.4546 11.2327 14.5454 11.2327 13.7169 11.5327C12.7247 9.403 12.2017 7.73483 12.2017 6.69231C12.2025 5.95812 12.4976 5.25424 13.0222 4.73509C13.5468 4.21594 14.2581 3.92392 15 3.92308ZM5.30624 9.46154C5.67792 8.82613 6.28912 8.36255 7.00575 8.17252C7.72237 7.98249 8.48591 8.08151 9.12885 8.44787C10.0416 8.9693 11.2404 10.2524 12.6085 12.1686C11.9318 12.728 11.4771 13.5065 11.3251 14.366C8.96466 14.1515 7.24297 13.7656 6.33057 13.2444C5.68847 12.8766 5.22003 12.2718 5.028 11.5626C4.83597 10.8534 4.93603 10.0978 5.30624 9.46154ZM9.12891 21.5521C8.48618 21.9189 7.72259 22.0181 7.00599 21.8279C6.2894 21.6376 5.67847 21.1736 5.3075 20.5378C4.93654 19.9019 4.83592 19.1463 5.02776 18.4371C5.21959 17.7278 5.68818 17.123 6.33051 16.7556C7.24297 16.2344 8.96466 15.8485 11.3251 15.634C11.4771 16.4935 11.9318 17.272 12.6085 17.8314C11.2404 19.7477 10.0415 21.0307 9.12891 21.5521ZM15 26.0769C14.2581 26.0761 13.5468 25.7841 13.0222 25.2649C12.4976 24.7458 12.2025 24.0419 12.2017 23.3077C12.2017 22.2652 12.7247 20.597 13.7169 18.4673C14.5454 18.7673 15.4546 18.7673 16.2831 18.4673C17.2753 20.597 17.7983 22.2652 17.7983 23.3077C17.7975 24.0419 17.5024 24.7458 16.9778 25.2649C16.4532 25.7841 15.7419 26.0761 15 26.0769ZM24.6938 20.5385C24.3221 21.1739 23.7109 21.6375 22.9943 21.8275C22.2776 22.0176 21.5141 21.9185 20.8711 21.5521C19.9584 21.0307 18.7596 19.7476 17.3915 17.8314C18.0682 17.272 18.5229 16.4935 18.6749 15.634C21.0353 15.8485 22.757 16.2344 23.6694 16.7556C24.3115 17.1234 24.78 17.7282 24.972 18.4374C25.164 19.1466 25.064 19.9022 24.6938 20.5385Z" fill="#2E2521" stroke="#2E2521" stroke-width="0.6"/>
</svg>
