<svg width="20" height="20" viewBox="0 0 20 20" fill="none" xmlns="http://www.w3.org/2000/svg">
<path d="M18.25 10C18.25 14.5563 14.5563 18.25 10 18.25C7.78702 18.25 5.86329 17.1341 4.47158 15.3953C3.07546 13.651 2.25 11.3167 2.25 9C2.25 6.78631 3.23845 5.26654 4.79194 4.26671C6.38315 3.24259 8.59987 2.75 11 2.75C13.3319 2.75 15.1248 3.45757 16.3336 4.66637C17.5424 5.87517 18.25 7.66809 18.25 10Z" stroke="#FCF6EC" stroke-width="1.5"/>
<path d="M12.1444 7.11942C14.0825 8.23837 14.7429 10.6482 13.682 12.4857C13.1836 13.349 12.292 13.8625 11.2189 14.0107C10.1397 14.1598 8.93427 13.9263 7.93595 13.3499C7.02312 12.8229 6.64407 12.0871 6.59236 11.248C6.53793 10.3646 6.84913 9.32057 7.44394 8.29033C8.00315 7.32174 8.71321 6.78608 9.46523 6.59622C10.2208 6.40545 11.1325 6.53519 12.1444 7.11942Z" stroke="#FCF6EC" stroke-width="1.5"/>
</svg>
